<svg id="svg" version="1.1" xmlns="http://www.w3.org/2000/svg" xmlns:xlink="http://www.w3.org/1999/xlink" width="400" height="282.35294117647055" viewBox="0, 0, 400,282.35294117647055"><g id="svgg"><path id="path0" d="M162.017 15.876 C 144.298 19.216,138.081 21.098,126.723 26.559 C 78.914 49.544,59.283 110.699,84.104 159.328 C 118.650 227.012,212.131 231.415,253.895 167.325 C 258.049 160.952,261.963 153.198,263.193 148.908 C 266.808 136.300,267.626 132.671,268.628 124.801 C 274.520 78.558,244.692 32.853,200.178 19.912 C 188.734 16.586,169.207 14.520,162.017 15.876 M212.511 35.332 C 235.149 46.803,247.346 64.330,249.561 88.571 L 250.314 96.807 254.947 96.807 L 259.581 96.807 259.370 98.992 L 259.160 101.176 254.807 101.381 C 250.041 101.604,249.437 102.062,249.422 105.468 C 249.401 110.062,247.919 113.143,243.724 117.311 L 239.664 121.345 239.250 100.840 C 238.591 68.123,231.935 52.968,210.864 36.202 C 207.095 33.203,207.690 32.889,212.511 35.332 M189.580 34.979 C 197.662 36.243,206.097 41.638,210.289 48.225 C 214.263 54.470,214.527 56.633,214.312 81.201 C 214.053 110.796,216.775 108.235,185.568 108.235 L 164.034 108.235 164.034 111.571 L 164.034 114.908 170.252 115.101 L 176.471 115.294 176.648 137.647 L 176.825 160.000 200.391 160.000 C 227.500 160.000,235.216 159.245,244.892 155.646 C 251.712 153.109,251.637 152.948,247.323 160.815 C 242.060 170.415,239.869 170.907,200.844 171.260 C 161.946 171.611,164.706 173.461,164.706 147.027 C 164.706 128.459,164.638 128.187,159.849 127.441 C 153.890 126.513,152.605 123.990,152.605 113.212 C 152.605 98.080,151.697 98.572,180.406 98.151 L 203.361 97.815 203.177 75.325 C 202.900 41.509,203.429 42.017,168.403 42.017 C 143.977 42.017,142.252 42.266,131.429 47.353 C 111.131 56.893,95.462 80.036,95.462 100.475 C 95.462 102.472,95.094 103.095,93.277 104.168 C 88.730 106.855,86.062 109.207,84.984 111.478 C 81.851 118.081,82.445 99.801,85.731 88.515 C 93.707 61.121,118.479 38.909,145.351 35.058 C 151.263 34.210,184.288 34.152,189.580 34.979 M186.943 51.949 C 191.357 54.923,192.269 57.157,192.269 65.001 L 192.269 71.987 186.723 71.792 L 181.176 71.597 180.979 66.723 L 180.781 61.849 164.411 61.849 C 149.648 61.849,147.588 61.988,143.432 63.270 C 127.744 68.107,115.812 81.729,114.350 96.471 L 113.950 100.504 108.067 100.698 L 102.185 100.893 102.195 98.346 C 102.242 86.186,112.835 67.194,123.491 60.161 C 125.638 58.744,128.213 57.032,129.214 56.357 C 131.418 54.870,136.947 52.649,141.513 51.416 C 148.077 49.644,184.150 50.067,186.943 51.949 M155.966 69.580 L 155.966 71.933 152.269 71.933 C 148.657 71.933,148.571 71.889,148.571 70.028 C 148.571 67.472,148.935 67.227,152.717 67.227 L 155.966 67.227 155.966 69.580 M169.286 69.748 L 169.497 71.933 165.757 71.933 C 162.098 71.933,162.017 71.891,162.017 70.028 C 162.017 66.115,168.910 65.850,169.286 69.748 M228.869 71.410 C 230.209 73.323,230.192 74.547,228.803 76.082 C 226.624 78.490,221.849 76.875,221.849 73.730 C 221.849 70.207,226.865 68.549,228.869 71.410 M192.266 80.840 C 192.263 83.433,190.268 86.958,188.103 88.192 C 186.957 88.846,181.250 89.163,166.162 89.412 L 145.770 89.748 143.800 91.954 L 141.829 94.161 142.007 114.811 L 142.185 135.462 147.899 135.798 L 153.613 136.134 153.950 153.613 C 154.362 175.082,155.480 177.919,165.407 182.702 C 174.129 186.903,213.375 186.356,227.731 181.832 C 232.070 180.465,228.412 183.321,218.487 189.047 L 214.118 191.569 192.529 191.583 C 168.604 191.598,166.300 191.346,159.080 187.919 C 146.998 182.186,142.521 173.766,142.521 156.775 C 142.521 146.572,142.516 146.558,138.600 146.552 C 130.958 146.541,130.084 143.334,130.084 115.294 C 130.084 77.385,128.719 78.730,167.227 78.685 L 192.269 78.655 192.266 80.840 M228.869 86.200 C 230.202 88.102,230.199 89.705,228.860 91.044 C 226.546 93.358,221.849 91.704,221.849 88.576 C 221.849 85.003,226.846 83.312,228.869 86.200 M228.145 100.889 C 231.137 103.243,229.748 107.563,225.999 107.563 C 220.642 107.563,220.606 100.236,225.960 99.549 C 226.187 99.520,227.170 100.123,228.145 100.889 M95.462 132.908 C 95.462 154.692,95.309 155.532,92.669 148.196 C 91.414 144.707,91.191 142.314,90.908 129.280 C 90.544 112.505,90.579 112.269,93.424 112.269 L 95.462 112.269 95.462 132.908 M119.328 120.000 L 119.328 126.050 116.471 126.257 L 113.613 126.464 113.613 140.738 C 113.613 151.386,113.875 156.015,114.643 158.964 C 120.032 179.653,148.275 198.104,177.663 200.134 C 187.383 200.806,183.265 201.503,168.996 201.601 C 138.438 201.812,116.634 190.350,106.190 168.584 C 102.095 160.050,101.408 155.054,101.647 135.559 C 101.907 114.299,102.379 113.441,113.613 113.778 L 119.328 113.950 119.328 120.000 M259.414 123.529 C 258.880 127.597,257.698 134.928,257.099 137.882 C 256.665 140.023,247.189 144.785,237.647 147.657 C 231.948 149.373,230.650 149.495,215.294 149.758 L 198.992 150.038 198.992 144.325 L 198.992 138.611 214.958 138.342 C 238.292 137.948,248.322 134.209,257.392 122.521 C 260.143 118.975,260.020 118.913,259.414 123.529 M219.832 126.373 L 219.832 128.376 206.218 128.558 L 192.605 128.739 192.417 137.647 L 192.230 146.555 190.307 146.555 C 188.650 146.555,188.325 146.237,187.952 144.246 C 187.472 141.689,187.517 125.672,188.006 124.874 C 188.176 124.597,195.406 124.370,204.073 124.370 L 219.832 124.370 219.832 126.373 M127.731 138.769 C 127.731 139.293,127.915 140.200,128.139 140.785 C 128.493 141.707,127.731 141.849,122.425 141.849 C 116.317 141.849,114.386 140.628,116.751 138.263 C 117.710 137.304,127.731 137.765,127.731 138.769 M130.084 163.025 C 130.084 168.314,130.056 168.403,128.403 168.403 C 126.696 168.403,125.483 161.308,126.664 158.229 C 128.004 154.739,130.084 157.656,130.084 163.025 M34.958 231.765 C 34.959 232.042,35.713 232.312,36.635 232.366 C 37.556 232.419,38.143 232.192,37.939 231.861 C 37.490 231.135,34.958 231.053,34.958 231.765 M216.336 232.067 C 216.964 232.695,217.322 232.695,217.950 232.067 C 218.577 231.440,218.398 231.261,217.143 231.261 C 215.888 231.261,215.709 231.440,216.336 232.067 M97.815 237.122 C 92.291 238.468,93.026 244.420,98.955 246.343 C 101.754 247.251,102.391 249.412,99.860 249.412 C 98.897 249.412,97.935 248.958,97.722 248.403 C 97.502 247.829,96.499 247.395,95.390 247.395 C 91.463 247.395,94.085 251.655,98.525 252.488 C 106.398 253.965,108.969 245.672,101.383 243.267 C 98.245 242.272,96.913 240.000,99.468 240.000 C 100.246 240.000,101.057 240.454,101.269 241.008 C 101.709 242.153,105.546 242.415,105.546 241.300 C 105.546 239.231,101.721 236.300,99.564 236.717 C 99.341 236.760,98.555 236.942,97.815 237.122 M113.305 237.129 C 104.286 239.420,106.428 252.437,115.824 252.437 C 124.425 252.437,126.086 239.644,117.785 237.338 C 116.415 236.957,115.143 236.680,114.958 236.720 C 114.773 236.761,114.029 236.945,113.305 237.129 M160.191 237.110 C 156.090 237.904,153.906 244.778,156.291 249.389 C 158.784 254.210,167.448 253.425,169.039 248.235 C 169.669 246.180,166.130 246.037,164.862 248.067 C 162.941 251.143,159.328 249.270,159.328 245.200 C 159.328 240.400,162.773 238.000,164.862 241.345 C 165.803 242.852,169.412 243.237,169.412 241.830 C 169.412 239.575,164.389 236.114,162.017 236.734 C 161.832 236.782,161.010 236.952,160.191 237.110 M184.202 237.052 C 174.217 240.588,177.536 254.425,187.902 252.481 C 192.458 251.626,194.895 246.148,192.971 241.087 C 191.901 238.272,187.054 236.042,184.202 237.052 M231.261 237.091 C 226.051 239.135,226.660 244.322,232.340 246.287 C 235.394 247.343,236.324 249.412,233.745 249.412 C 232.839 249.412,231.721 248.958,231.261 248.403 C 230.240 247.174,227.227 247.062,227.227 248.254 C 227.227 249.998,229.348 252.059,231.572 252.477 C 239.438 253.952,242.535 246.497,235.305 243.493 C 233.303 242.661,231.933 241.666,231.933 241.046 C 231.933 239.697,234.536 239.666,235.051 241.008 C 235.471 242.103,239.328 242.440,239.328 241.382 C 239.328 238.925,233.918 236.048,231.261 237.091 M125.714 244.706 L 125.714 252.101 131.429 252.101 C 137.076 252.101,137.143 252.081,137.143 250.420 C 137.143 248.831,136.941 248.739,133.445 248.739 L 129.748 248.739 129.748 243.025 L 129.748 237.311 127.731 237.311 L 125.714 237.311 125.714 244.706 M139.261 243.343 C 139.561 251.062,140.625 252.437,146.297 252.437 C 151.703 252.437,152.605 251.128,152.605 243.287 L 152.605 237.311 150.756 237.311 C 148.914 237.311,148.908 237.328,148.908 242.057 C 148.908 248.262,148.449 249.412,145.976 249.412 C 143.515 249.412,143.193 248.591,143.193 242.298 L 143.193 237.311 141.110 237.311 L 139.026 237.311 139.261 243.343 M171.773 238.487 C 171.897 239.134,172.021 242.462,172.049 245.882 C 172.100 252.054,172.114 252.101,173.782 252.101 L 175.462 252.101 175.462 244.706 L 175.462 237.311 173.505 237.311 C 172.003 237.311,171.600 237.585,171.773 238.487 M196.303 244.706 L 196.303 252.101 198.319 252.101 L 200.336 252.101 200.356 247.563 L 200.375 243.025 202.877 247.557 C 205.354 252.045,205.406 252.089,208.235 252.095 L 211.092 252.101 211.092 244.706 L 211.092 237.311 209.076 237.311 L 207.059 237.311 207.044 242.521 L 207.029 247.731 204.221 242.521 C 201.477 237.429,201.356 237.311,198.858 237.311 L 196.303 237.311 196.303 244.706 M213.782 244.732 L 213.782 252.153 219.601 251.959 C 227.025 251.711,229.000 249.412,221.789 249.412 C 217.998 249.412,217.815 249.334,217.815 247.731 C 217.815 246.162,218.039 246.050,221.176 246.050 C 224.090 246.050,224.538 245.871,224.538 244.706 C 224.538 243.541,224.090 243.361,221.176 243.361 C 218.039 243.361,217.815 243.249,217.815 241.681 C 217.815 240.092,218.017 240.000,221.513 240.000 C 224.762 240.000,225.210 239.837,225.210 238.655 C 225.210 237.416,224.762 237.311,219.496 237.311 L 213.782 237.311 213.782 244.732 M244.706 238.655 C 244.706 239.744,245.154 240.000,247.059 240.000 L 249.412 240.000 249.412 246.050 L 249.412 252.101 251.429 252.101 L 253.445 252.101 253.445 246.050 L 253.445 240.000 255.798 240.000 C 257.703 240.000,258.151 239.744,258.151 238.655 C 258.151 237.401,257.703 237.311,251.429 237.311 C 245.154 237.311,244.706 237.401,244.706 238.655 M260.168 244.706 L 260.168 252.101 261.849 252.101 L 263.529 252.101 263.529 244.706 L 263.529 237.311 261.849 237.311 L 260.168 237.311 260.168 244.706 M118.296 241.300 C 120.168 244.800,118.648 249.412,115.622 249.412 C 112.012 249.412,110.387 244.086,113.027 240.904 C 114.169 239.529,117.481 239.778,118.296 241.300 M188.884 241.300 C 190.839 244.953,189.235 249.412,185.967 249.412 C 182.539 249.412,180.936 244.772,183.231 241.494 C 184.575 239.576,187.900 239.462,188.884 241.300 " stroke="none" fill="#000000" fill-rule="evenodd"></path></g></svg>